<svg preserveAspectRatio="none" width="100%" height="100%" overflow="visible" style="display: block;" viewBox="0 0 946.8 720" fill="none" xmlns="http://www.w3.org/2000/svg">
<g id="Group">
<path id="Line" opacity="0.7" d="M0.000244141 72.0002H946.8" stroke="var(--stroke-0, white)" stroke-width="1.5"/>
<path id="Line_2" opacity="0.7" d="M0.000241005 96H946.8" stroke="var(--stroke-0, white)" stroke-width="1.5"/>
<path id="Line_3" opacity="0.7" d="M0.000241005 120H946.8" stroke="var(--stroke-0, white)" stroke-width="1.5"/>
<path id="Line_4" opacity="0.7" d="M0.000241005 144H946.8" stroke="var(--stroke-0, white)" stroke-width="1.5"/>
<path id="Line_5" opacity="0.7" d="M4.13811e-05 168H946.8" stroke="var(--stroke-0, white)" stroke-width="1.5"/>
<path id="Line_6" opacity="0.7" d="M4.13811e-05 192H946.8" stroke="var(--stroke-0, white)" stroke-width="1.5"/>
<path id="Line_7" opacity="0.7" d="M4.13811e-05 216H946.8" stroke="var(--stroke-0, white)" stroke-width="1.5"/>
<path id="Line_8" opacity="0.7" d="M4.13811e-05 240H946.8" stroke="var(--stroke-0, white)" stroke-width="1.5"/>
<path id="Line_9" opacity="0.7" d="M4.13811e-05 264H946.8" stroke="var(--stroke-0, white)" stroke-width="1.5"/>
<path id="Line_10" opacity="0.7" d="M4.13811e-05 288H946.8" stroke="var(--stroke-0, white)" stroke-width="1.5"/>
<path id="Line_11" opacity="0.7" d="M4.13811e-05 312H946.8" stroke="var(--stroke-0, white)" stroke-width="1.5"/>
<path id="Line_12" opacity="0.7" d="M4.13811e-05 336H946.8" stroke="var(--stroke-0, white)" stroke-width="1.5"/>
<path id="Line_13" opacity="0.7" d="M0.000241005 360H946.8" stroke="var(--stroke-0, white)" stroke-width="1.5"/>
<path id="Line_14" opacity="0.7" d="M4.13811e-05 384H946.8" stroke="var(--stroke-0, white)" stroke-width="1.5"/>
<path id="Line_15" opacity="0.7" d="M4.13811e-05 408H946.8" stroke="var(--stroke-0, white)" stroke-width="1.5"/>
<path id="Line_16" opacity="0.7" d="M4.13811e-05 432H946.8" stroke="var(--stroke-0, white)" stroke-width="1.5"/>
<path id="Line_17" opacity="0.7" d="M4.13811e-05 456H946.8" stroke="var(--stroke-0, white)" stroke-width="1.5"/>
<path id="Line_18" opacity="0.7" d="M4.13811e-05 480H946.8" stroke="var(--stroke-0, white)" stroke-width="1.5"/>
<path id="Line_19" opacity="0.7" d="M4.13811e-05 504H946.8" stroke="var(--stroke-0, white)" stroke-width="1.5"/>
<path id="Line_20" opacity="0.7" d="M4.13811e-05 528H946.8" stroke="var(--stroke-0, white)" stroke-width="1.5"/>
<path id="Line_21" opacity="0.7" d="M0.000241005 552H946.8" stroke="var(--stroke-0, white)" stroke-width="1.5"/>
<path id="Line_22" opacity="0.7" d="M4.13811e-05 576H946.8" stroke="var(--stroke-0, white)" stroke-width="1.5"/>
<path id="Line_23" opacity="0.7" d="M4.13811e-05 600H946.8" stroke="var(--stroke-0, white)" stroke-width="1.5"/>
<path id="Line_24" opacity="0.7" d="M4.13811e-05 624H946.8" stroke="var(--stroke-0, white)" stroke-width="1.5"/>
<path id="Line_25" opacity="0.7" d="M4.13811e-05 648H946.8" stroke="var(--stroke-0, white)" stroke-width="1.5"/>
<path id="Line_26" opacity="0.3" d="M78.9 0.00024414V720" stroke="var(--stroke-0, white)" stroke-width="0.500001"/>
<path id="Line_27" opacity="0.3" d="M173.58 9.23353e-05V720" stroke="var(--stroke-0, white)" stroke-width="0.500001"/>
<path id="Line_28" opacity="0.3" d="M268.26 9.23353e-05V720" stroke="var(--stroke-0, white)" stroke-width="0.500001"/>
<path id="Line_29" opacity="0.3" d="M362.94 9.23353e-05V720" stroke="var(--stroke-0, white)" stroke-width="0.500001"/>
<path id="Line_30" opacity="0.3" d="M457.62 9.23353e-05V720" stroke="var(--stroke-0, white)" stroke-width="0.500001"/>
<path id="Line_31" opacity="0.3" d="M552.3 9.23353e-05V720" stroke="var(--stroke-0, white)" stroke-width="0.500001"/>
<path id="Line_32" opacity="0.3" d="M646.98 9.23353e-05V720" stroke="var(--stroke-0, white)" stroke-width="0.500001"/>
<path id="Line_33" opacity="0.3" d="M741.66 0.00024414V720" stroke="var(--stroke-0, white)" stroke-width="0.500001"/>
<path id="Line_34" opacity="0.3" d="M836.34 9.23353e-05V720" stroke="var(--stroke-0, white)" stroke-width="0.500001"/>
<path id="Line_35" opacity="0.3" d="M931.02 9.23353e-05V720" stroke="var(--stroke-0, white)" stroke-width="0.500001"/>
</g>
</svg>
