<svg preserveAspectRatio="none" width="100%" height="100%" overflow="visible" style="display: block;" viewBox="0 0 36 36" fill="none" xmlns="http://www.w3.org/2000/svg">
<g id="Frame">
<path id="Vector" d="M10.5 4.5H6C5.17157 4.5 4.5 5.17157 4.5 6V10.5C4.5 11.3284 5.17157 12 6 12H10.5C11.3284 12 12 11.3284 12 10.5V6C12 5.17157 11.3284 4.5 10.5 4.5Z" stroke="var(--stroke-0, #314158)" stroke-width="3" stroke-linecap="round" stroke-linejoin="round"/>
<path id="Vector_2" d="M30 4.5H25.5C24.6716 4.5 24 5.17157 24 6V10.5C24 11.3284 24.6716 12 25.5 12H30C30.8284 12 31.5 11.3284 31.5 10.5V6C31.5 5.17157 30.8284 4.5 30 4.5Z" stroke="var(--stroke-0, #314158)" stroke-width="3" stroke-linecap="round" stroke-linejoin="round"/>
<path id="Vector_3" d="M10.5 24H6C5.17157 24 4.5 24.6716 4.5 25.5V30C4.5 30.8284 5.17157 31.5 6 31.5H10.5C11.3284 31.5 12 30.8284 12 30V25.5C12 24.6716 11.3284 24 10.5 24Z" stroke="var(--stroke-0, #314158)" stroke-width="3" stroke-linecap="round" stroke-linejoin="round"/>
<path id="Vector_4" d="M31.5 24H27C26.2044 24 25.4413 24.3161 24.8787 24.8787C24.3161 25.4413 24 26.2044 24 27V31.5" stroke="var(--stroke-0, #314158)" stroke-width="3" stroke-linecap="round" stroke-linejoin="round"/>
<path id="Line" d="M31.5 31.5V31.515" stroke="var(--stroke-0, #314158)" stroke-width="3" stroke-linecap="round" stroke-linejoin="round"/>
<path id="Vector_5" d="M18 10.5V15C18 15.7956 17.6839 16.5587 17.1213 17.1213C16.5587 17.6839 15.7956 18 15 18H10.5" stroke="var(--stroke-0, #314158)" stroke-width="3" stroke-linecap="round" stroke-linejoin="round"/>
<path id="Line_2" d="M4.5 18H4.515" stroke="var(--stroke-0, #314158)" stroke-width="3" stroke-linecap="round" stroke-linejoin="round"/>
<path id="Line_3" d="M18 4.5H18.015" stroke="var(--stroke-0, #314158)" stroke-width="3" stroke-linecap="round" stroke-linejoin="round"/>
<path id="Line_4" d="M18 24V24.015" stroke="var(--stroke-0, #314158)" stroke-width="3" stroke-linecap="round" stroke-linejoin="round"/>
<path id="Line_5" d="M24 18H25.5" stroke="var(--stroke-0, #314158)" stroke-width="3" stroke-linecap="round" stroke-linejoin="round"/>
<path id="Line_6" d="M31.5 18V18.015" stroke="var(--stroke-0, #314158)" stroke-width="3" stroke-linecap="round" stroke-linejoin="round"/>
<path id="Line_7" d="M18 31.5V30" stroke="var(--stroke-0, #314158)" stroke-width="3" stroke-linecap="round" stroke-linejoin="round"/>
</g>
</svg>
